<svg xmlns="http://www.w3.org/2000/svg" width="80" height="80"><symbol id="artwork-decorative"><path d="M19 70a1.001 1.001 0 0 1 0 2 1.001 1.001 0 0 1 0-2m26-2a1.001 1.001 0 0 1 0 2 1.001 1.001 0 0 1 0-2m24-10a1.001 1.001 0 0 1 0 2 1.001 1.001 0 0 1 0-2M9 30a1.001 1.001 0 0 1 0 2 1.001 1.001 0 0 1 0-2m58-16a1.001 1.001 0 0 1 0 2 1.001 1.001 0 0 1 0-2M31 8a1.001 1.001 0 0 1 0 2 1.001 1.001 0 0 1 0-2"/></symbol><symbol id="artwork-minor"><path d="M59 38a1 1 0 1 1 0 2 1 1 0 0 1 0-2m-4 0a1 1 0 0 1 .117 1.993L55 40h-2a1 1 0 0 1-.117-1.993L53 38zm-14-8a1 1 0 1 1 0 2 1 1 0 0 1 0-2m6 0a1 1 0 0 1 .117 1.993L47 32h-2a1 1 0 0 1-.117-1.993L45 30z"/></symbol><symbol id="artwork-major"><path d="M38.237 27.22a12.9 12.9 0 0 0-3.592 8.955c0 6.768 5.204 12.38 11.893 12.895a1 1 0 0 1-.154 1.994c-7.73-.595-13.739-7.075-13.739-14.889 0-3.61 1.286-7.048 3.613-9.75l.227-.257-.2.078c-6.065 2.443-10.138 8.31-10.28 14.934l-.003.356c0 9.097 7.334 16.466 16.375 16.466 6.926 0 13.064-4.375 15.397-10.846l.069-.199-.197.188a14.8 14.8 0 0 1-6.994 3.636l-.394.079a1 1 0 0 1-.364-1.967 12.84 12.84 0 0 0 6.893-3.704c1.39-1.435 3.71.015 3.12 1.9-2.403 7.666-9.492 12.913-17.53 12.913-10.148 0-18.375-8.267-18.375-18.466 0-7.855 4.938-14.83 12.274-17.424 1.88-.664 3.323 1.685 1.961 3.108M15 58a1 1 0 1 1 0 2 1 1 0 0 1 0-2m8 0a1 1 0 0 1 .117 1.993L23 60h-4a1 1 0 0 1-.117-1.993L19 58zm34-32a1 1 0 0 1 .117 1.993L57 28h-2a1 1 0 0 1-.117-1.993L55 26z"/></symbol><use class="fr-artwork-decorative" href="#artwork-decorative"/><use class="fr-artwork-minor" href="#artwork-minor"/><use class="fr-artwork-major" href="#artwork-major"/></svg>