<svg xmlns="http://www.w3.org/2000/svg" width="80" height="80"><symbol id="artwork-decorative"><path d="M19 70a1.001 1.001 0 0 1 0 2 1.001 1.001 0 0 1 0-2m48-6a1.001 1.001 0 0 1 0 2 1.001 1.001 0 0 1 0-2M9 30a1.001 1.001 0 0 1 0 2 1.001 1.001 0 0 1 0-2m58-16a1.001 1.001 0 0 1 0 2 1.001 1.001 0 0 1 0-2M31 8a1.001 1.001 0 0 1 0 2 1.001 1.001 0 0 1 0-2"/></symbol><symbol id="artwork-minor"><path d="M32.445 44.168a1 1 0 0 1 1.387.277C35.316 46.671 38.506 48 41 48a1 1 0 0 1 0 2c-3.106 0-6.931-1.594-8.832-4.445a1 1 0 0 1 .277-1.387"/></symbol><symbol id="artwork-major"><path d="M40 59.07a1 1 0 0 1 .993.884l.007.116v5.474a1 1 0 0 1-1.993.116L39 65.544V60.07a1 1 0 0 1 1-1m-14.54-5.187a1 1 0 0 1 .094 1.32l-.082.094-1.793 1.825a1 1 0 0 1-1.51-1.307l.083-.095 1.793-1.824a1 1 0 0 1 1.415-.013m30.401-.071.094.084 1.793 1.824a1 1 0 0 1-1.333 1.486l-.094-.084-1.793-1.825a1 1 0 0 1 1.333-1.485M40 26c7.732 0 14 6.268 14 14s-6.268 14-14 14c-4.14 0-7.987-1.808-10.63-4.89a1 1 0 0 1 1.518-1.301A11.97 11.97 0 0 0 40 52c6.627 0 12-5.373 12-12s-5.373-12-12-12-12 5.373-12 12c0 1.644.33 3.24.962 4.716a1 1 0 1 1-1.839.787A14 14 0 0 1 26 40c0-7.732 6.268-14 14-14M19.38 39a1 1 0 0 1 .116 1.993l-.117.007H14a1 1 0 0 1-.117-1.993L14 39zM66 39a1 1 0 0 1 .117 1.993L66 41h-5.38a1 1 0 0 1-.116-1.993l.117-.007zm-8.265-17.959a1 1 0 0 1 .095 1.32l-.082.094-1.793 1.825a1 1 0 0 1-1.51-1.307l.083-.095 1.793-1.825a1 1 0 0 1 1.414-.012m-34.15-.072.094.084 1.793 1.825a1 1 0 0 1-1.333 1.486l-.094-.084-1.793-1.825a1 1 0 0 1 1.333-1.486M40 13.456a1 1 0 0 1 .993.884l.007.116v5.474a1 1 0 0 1-1.993.116L39 19.93v-5.474a1 1 0 0 1 1-1"/></symbol><use class="fr-artwork-decorative" href="#artwork-decorative"/><use class="fr-artwork-minor" href="#artwork-minor"/><use class="fr-artwork-major" href="#artwork-major"/></svg>